<svg xmlns="http://www.w3.org/2000/svg" viewBox="0 0 250.92 74.35"><defs><style>.cls-1{fill:#a6a6a6;}.cls-2{fill:#091118;}.cls-3{fill:#fff;}</style></defs><title>appStore@2x</title><g id="Layer_2" data-name="Layer 2"><g id="Layer_1-2" data-name="Layer 1"><path class="cls-1" d="M242,74.35H8.79A8.81,8.81,0,0,1,0,65.55V8.78A8.79,8.79,0,0,1,8.79,0H242a8.91,8.91,0,0,1,8.93,8.78V65.55a8.93,8.93,0,0,1-8.93,8.8Z"/><path class="cls-2" d="M249.12,65.55A7.12,7.12,0,0,1,242,72.67H8.79a7.13,7.13,0,0,1-7.14-7.12V8.78A7.14,7.14,0,0,1,8.79,1.65H242a7.13,7.13,0,0,1,7.13,7.13V65.55Z"/><path class="cls-3" d="M56,36.77a10.76,10.76,0,0,1,5.13-9A11.07,11.07,0,0,0,52.44,23c-3.66-.38-7.2,2.19-9.07,2.19s-4.76-2.15-7.85-2.09a11.6,11.6,0,0,0-9.74,5.94c-4.21,7.29-1.07,18,3,23.9,2,2.89,4.38,6.11,7.46,6S40.35,57,44,57,48.67,59,51.82,58.9s5.28-2.9,7.23-5.82a23.44,23.44,0,0,0,3.3-6.73A10.41,10.41,0,0,1,56,36.77Z"/><path class="cls-3" d="M50.05,19.16a10.7,10.7,0,0,0,2.43-7.61,10.83,10.83,0,0,0-7,3.62A10.11,10.11,0,0,0,43,22.49,9,9,0,0,0,50.05,19.16Z"/><path class="cls-3" d="M99.71,58.56H95.49l-2.31-7.27h-8l-2.2,7.27H78.83l8-24.74h4.92ZM92.48,48.24l-2.09-6.46c-.22-.66-.64-2.21-1.25-4.66h-.07c-.25,1.06-.64,2.61-1.18,4.66l-2,6.46Z"/><path class="cls-3" d="M120.19,49.42a10.14,10.14,0,0,1-2.46,7.19A7.18,7.18,0,0,1,112.26,59a5.49,5.49,0,0,1-5.07-2.53h-.07v9.39h-4V46.59c0-1.91,0-3.86-.15-5.87h3.49l.22,2.83h.07a7,7,0,0,1,11.29-.7A9.85,9.85,0,0,1,120.19,49.42Zm-4,.14A7.31,7.31,0,0,0,115,45.27a4,4,0,0,0-3.45-1.76,4.12,4.12,0,0,0-2.66,1A4.57,4.57,0,0,0,107.3,47a5.35,5.35,0,0,0-.18,1.21v3a4.79,4.79,0,0,0,1.19,3.29,4,4,0,0,0,3.1,1.34,4.07,4.07,0,0,0,3.49-1.72A7.65,7.65,0,0,0,116.15,49.56Z"/><path class="cls-3" d="M140.7,49.42a10.14,10.14,0,0,1-2.46,7.19A7.18,7.18,0,0,1,132.77,59a5.46,5.46,0,0,1-5.06-2.53h-.07v9.39h-4V46.59c0-1.91,0-3.86-.14-5.87H127l.22,2.83h.08a7,7,0,0,1,11.28-.7A9.8,9.8,0,0,1,140.7,49.42Zm-4,.14a7.38,7.38,0,0,0-1.17-4.29,4.21,4.21,0,0,0-6.11-.79A4.47,4.47,0,0,0,127.82,47a5.35,5.35,0,0,0-.18,1.21v3a4.74,4.74,0,0,0,1.19,3.29,4,4,0,0,0,3.1,1.34,4.07,4.07,0,0,0,3.48-1.72A7.58,7.58,0,0,0,136.66,49.56Z"/><path class="cls-3" d="M163.64,51.62a6.59,6.59,0,0,1-2.2,5.14,9.76,9.76,0,0,1-6.74,2.16,11.79,11.79,0,0,1-6.41-1.54l.92-3.3a10.89,10.89,0,0,0,5.73,1.58,5.45,5.45,0,0,0,3.49-1,3.32,3.32,0,0,0,1.24-2.71,3.42,3.42,0,0,0-1-2.53,9.48,9.48,0,0,0-3.41-1.92q-6.49-2.41-6.49-7.09a6.31,6.31,0,0,1,2.27-5,9,9,0,0,1,6.06-1.95,12,12,0,0,1,5.61,1.18l-1,3.23A9.71,9.71,0,0,0,157,36.72a4.77,4.77,0,0,0-3.27,1,2.92,2.92,0,0,0-1,2.24,3,3,0,0,0,1.14,2.42,12.94,12.94,0,0,0,3.59,1.91,12.07,12.07,0,0,1,4.7,3A6.31,6.31,0,0,1,163.64,51.62Z"/><path class="cls-3" d="M176.74,43.69h-4.37v8.66c0,2.2.77,3.31,2.31,3.31a7.1,7.1,0,0,0,1.76-.19l.11,3a9,9,0,0,1-3.08.44,4.75,4.75,0,0,1-3.67-1.43c-.88-1-1.32-2.56-1.32-4.81v-9h-2.61v-3h2.61V37.45l3.89-1.17v4.44h4.37Z"/><path class="cls-3" d="M196.45,49.49a9.8,9.8,0,0,1-2.35,6.75A8.4,8.4,0,0,1,187.56,59a8,8,0,0,1-6.25-2.61A9.43,9.43,0,0,1,179,49.78a9.69,9.69,0,0,1,2.4-6.78,8.3,8.3,0,0,1,6.48-2.65A8.15,8.15,0,0,1,194.17,43,9.38,9.38,0,0,1,196.45,49.49Zm-4.12.13a8,8,0,0,0-1.06-4.23,3.91,3.91,0,0,0-3.56-2.14,4,4,0,0,0-3.63,2.14,8.16,8.16,0,0,0-1.07,4.3,8,8,0,0,0,1.07,4.23,4,4,0,0,0,7.15,0A8,8,0,0,0,192.33,49.62Z"/><path class="cls-3" d="M209.32,44.21a6.15,6.15,0,0,0-1.24-.11,3.71,3.71,0,0,0-3.23,1.58,5.84,5.84,0,0,0-1,3.52v9.36h-4l0-12.22c0-2.06-.05-3.93-.15-5.62h3.45l.15,3.41h.11a6.14,6.14,0,0,1,2-2.82,4.78,4.78,0,0,1,2.86-1,5.83,5.83,0,0,1,1,.08Z"/><path class="cls-3" d="M227.05,48.79a9.17,9.17,0,0,1-.15,1.8H215a5.18,5.18,0,0,0,1.73,4,5.9,5.9,0,0,0,3.89,1.25,13.24,13.24,0,0,0,4.81-.85l.62,2.75a14.81,14.81,0,0,1-6,1.11,8.66,8.66,0,0,1-6.52-2.45,9,9,0,0,1-2.37-6.55,10.2,10.2,0,0,1,2.21-6.71,7.58,7.58,0,0,1,6.23-2.86,6.64,6.64,0,0,1,5.84,2.86A9.63,9.63,0,0,1,227.05,48.79Zm-3.78-1a5.42,5.42,0,0,0-.77-3.05,3.47,3.47,0,0,0-3.16-1.65,3.76,3.76,0,0,0-3.15,1.61A5.94,5.94,0,0,0,215,47.77Z"/><path class="cls-3" d="M91.17,18.6a6.09,6.09,0,0,1-2,4.94A7.82,7.82,0,0,1,84,25.08a23.13,23.13,0,0,1-2.85-.15V13a20.66,20.66,0,0,1,3.35-.25,7.27,7.27,0,0,1,4.82,1.38A5.63,5.63,0,0,1,91.17,18.6Zm-2.06.06A4.46,4.46,0,0,0,88,15.39a4.48,4.48,0,0,0-3.29-1.13,8.72,8.72,0,0,0-1.57.12v9.09a9.44,9.44,0,0,0,1.31.06,4.64,4.64,0,0,0,3.46-1.25A5,5,0,0,0,89.11,18.66Z"/><path class="cls-3" d="M102.06,20.51a4.8,4.8,0,0,1-1.16,3.32,4.11,4.11,0,0,1-3.21,1.34,3.93,3.93,0,0,1-3.07-1.28,4.69,4.69,0,0,1-1.14-3.23,4.81,4.81,0,0,1,1.17-3.34A4.12,4.12,0,0,1,97.84,16a4,4,0,0,1,3.1,1.28A4.61,4.61,0,0,1,102.06,20.51Zm-2,.07a3.94,3.94,0,0,0-.53-2.08,1.91,1.91,0,0,0-1.74-1.05A2,2,0,0,0,96,18.5a4,4,0,0,0-.52,2.11A3.94,3.94,0,0,0,96,22.69a2,2,0,0,0,3.52,0A4,4,0,0,0,100,20.58Z"/><path class="cls-3" d="M116.66,16.21,113.92,25h-1.79L111,21.16c-.29-.95-.52-1.89-.71-2.83h0a20.89,20.89,0,0,1-.7,2.83L108.35,25h-1.81L104,16.21h2l1,4.16c.24,1,.44,1.92.59,2.81h0q.21-1.09.72-2.79l1.25-4.18h1.58l1.19,4.09c.29,1,.53,2,.7,2.88h.06a27.88,27.88,0,0,1,.59-2.88l1.07-4.09Z"/><path class="cls-3" d="M126.76,25h-2V20c0-1.55-.59-2.32-1.77-2.32a1.74,1.74,0,0,0-1.4.64,2.23,2.23,0,0,0-.54,1.5V25h-1.95V18.71c0-.77,0-1.6-.07-2.5h1.71l.09,1.36h.05a2.89,2.89,0,0,1,1-1.05,3.28,3.28,0,0,1,1.77-.49,2.79,2.79,0,0,1,2,.79,3.87,3.87,0,0,1,1,2.9Z"/><path class="cls-3" d="M132.13,25h-1.95V12.18h1.95Z"/><path class="cls-3" d="M143.6,20.51a4.8,4.8,0,0,1-1.16,3.32,4.11,4.11,0,0,1-3.21,1.34,3.91,3.91,0,0,1-3.07-1.28A4.69,4.69,0,0,1,135,20.66a4.81,4.81,0,0,1,1.18-3.34A4.11,4.11,0,0,1,139.37,16a4,4,0,0,1,3.11,1.28A4.61,4.61,0,0,1,143.6,20.51Zm-2,.07a3.94,3.94,0,0,0-.52-2.08,1.91,1.91,0,0,0-1.74-1.05,2,2,0,0,0-1.79,1.05,4,4,0,0,0-.52,2.11,3.94,3.94,0,0,0,.52,2.08,2,2,0,0,0,1.77,1A1.93,1.93,0,0,0,141,22.68,3.89,3.89,0,0,0,141.57,20.58Z"/><path class="cls-3" d="M153,25h-1.75l-.14-1h-.06a3,3,0,0,1-2.55,1.21,2.63,2.63,0,0,1-2-.8,2.47,2.47,0,0,1-.69-1.78,2.73,2.73,0,0,1,1.34-2.45,6.89,6.89,0,0,1,3.78-.83v-.17c0-1.15-.6-1.73-1.82-1.73a4.09,4.09,0,0,0-2.28.65l-.4-1.28a5.67,5.67,0,0,1,3-.75c2.29,0,3.44,1.2,3.44,3.62v3.23A14.41,14.41,0,0,0,153,25Zm-2-3V20.6c-2.15,0-3.22.56-3.22,1.77a1.32,1.32,0,0,0,.37,1,1.35,1.35,0,0,0,.95.34,1.94,1.94,0,0,0,1.19-.4,1.64,1.64,0,0,0,.68-1A1.72,1.72,0,0,0,151,22Z"/><path class="cls-3" d="M164.09,25h-1.73l-.09-1.41h-.05a2.91,2.91,0,0,1-2.81,1.61,3.31,3.31,0,0,1-2.64-1.25,4.87,4.87,0,0,1-1-3.23,5.13,5.13,0,0,1,1.13-3.44A3.5,3.5,0,0,1,159.57,16,2.61,2.61,0,0,1,162,17.22h0v-5h2V22.61C164,23.46,164.05,24.25,164.09,25Zm-2-3.7V19.81a2.57,2.57,0,0,0,0-.61,2.27,2.27,0,0,0-.7-1.18,1.93,1.93,0,0,0-1.31-.48,2,2,0,0,0-1.71.87,3.64,3.64,0,0,0-.63,2.21,3.45,3.45,0,0,0,.6,2.11,2,2,0,0,0,1.71.87,1.9,1.9,0,0,0,1.54-.72A2.44,2.44,0,0,0,162.07,21.27Z"/><path class="cls-3" d="M180.75,20.51a4.79,4.79,0,0,1-1.15,3.32,4.14,4.14,0,0,1-3.21,1.34,4,4,0,0,1-3.08-1.28,4.69,4.69,0,0,1-1.14-3.23,4.77,4.77,0,0,1,1.18-3.34A4.11,4.11,0,0,1,176.53,16a4,4,0,0,1,3.1,1.28A4.56,4.56,0,0,1,180.75,20.51Zm-2,.07a3.94,3.94,0,0,0-.52-2.08,1.92,1.92,0,0,0-1.75-1.05,2,2,0,0,0-1.79,1.05,4.1,4.1,0,0,0-.52,2.11,4,4,0,0,0,.52,2.08,2,2,0,0,0,1.77,1,1.94,1.94,0,0,0,1.75-1.06A4,4,0,0,0,178.73,20.58Z"/><path class="cls-3" d="M191.22,25h-1.94V20c0-1.55-.59-2.32-1.77-2.32a1.73,1.73,0,0,0-1.4.64,2.23,2.23,0,0,0-.54,1.5V25h-1.95V18.71c0-.77,0-1.6-.07-2.5h1.71l.09,1.36h.05a2.89,2.89,0,0,1,1-1.05,3.28,3.28,0,0,1,1.77-.49,2.81,2.81,0,0,1,2,.79,3.87,3.87,0,0,1,1,2.9Z"/><path class="cls-3" d="M204.33,17.67h-2.14v4.25c0,1.08.38,1.62,1.13,1.62a3.52,3.52,0,0,0,.87-.09l.05,1.48a4.23,4.23,0,0,1-1.51.22,2.32,2.32,0,0,1-1.8-.71,3.38,3.38,0,0,1-.65-2.36V17.67H199V16.21h1.28V14.6l1.91-.58v2.19h2.14Z"/><path class="cls-3" d="M214.65,25h-2V20c0-1.57-.59-2.36-1.77-2.36A1.87,1.87,0,0,0,209.07,19a2.71,2.71,0,0,0-.09.7V25H207V12.18H209v5.29h0A2.94,2.94,0,0,1,211.65,16a2.72,2.72,0,0,1,2,.79,4,4,0,0,1,1,2.94Z"/><path class="cls-3" d="M225.28,20.17a4.59,4.59,0,0,1-.07.89h-5.84a2.55,2.55,0,0,0,.85,2,2.88,2.88,0,0,0,1.91.61,6.61,6.61,0,0,0,2.36-.41l.31,1.35a7.35,7.35,0,0,1-2.94.54,4.24,4.24,0,0,1-3.2-1.2,4.4,4.4,0,0,1-1.16-3.22,5,5,0,0,1,1.08-3.3,3.73,3.73,0,0,1,3.06-1.4,3.28,3.28,0,0,1,2.87,1.4A4.72,4.72,0,0,1,225.28,20.17Zm-1.86-.5a2.62,2.62,0,0,0-.37-1.5,1.71,1.71,0,0,0-1.55-.81,1.83,1.83,0,0,0-1.55.79,2.88,2.88,0,0,0-.58,1.52Z"/></g></g></svg>