<svg xmlns="http://www.w3.org/2000/svg" viewBox="0 0 250.92 74.35"><defs><style>.cls-1{fill:#091118;}.cls-2{fill:#a6a6a6;}.cls-11,.cls-3,.cls-4{fill:#fff;}.cls-3{stroke:#fff;stroke-miterlimit:10;stroke-width:0.2px;}.cls-5{fill:url(#linear-gradient);}.cls-6{fill:url(#linear-gradient-2);}.cls-7{fill:url(#linear-gradient-3);}.cls-8{fill:url(#linear-gradient-4);}.cls-9{opacity:0.2;}.cls-10,.cls-11,.cls-9{isolation:isolate;}.cls-10{opacity:0.12;}.cls-11{opacity:0.25;}</style><linearGradient id="linear-gradient" x1="40.52" y1="-851.23" x2="9.33" y2="-882.42" gradientTransform="matrix(1, 0, 0, -1, 0, -835.04)" gradientUnits="userSpaceOnUse"><stop offset="0" stop-color="#00a0ff"/><stop offset="0.01" stop-color="#00a1ff"/><stop offset="0.26" stop-color="#00beff"/><stop offset="0.51" stop-color="#00d2ff"/><stop offset="0.76" stop-color="#00dfff"/><stop offset="1" stop-color="#00e3ff"/></linearGradient><linearGradient id="linear-gradient-2" x1="62.89" y1="-872.22" x2="17.91" y2="-872.22" gradientTransform="matrix(1, 0, 0, -1, 0, -835.04)" gradientUnits="userSpaceOnUse"><stop offset="0" stop-color="#ffe000"/><stop offset="0.41" stop-color="#ffbd00"/><stop offset="0.78" stop-color="orange"/><stop offset="1" stop-color="#ff9c00"/></linearGradient><linearGradient id="linear-gradient-3" x1="46.14" y1="-876.48" x2="3.84" y2="-918.78" gradientTransform="matrix(1, 0, 0, -1, 0, -835.04)" gradientUnits="userSpaceOnUse"><stop offset="0" stop-color="#ff3a44"/><stop offset="1" stop-color="#c31162"/></linearGradient><linearGradient id="linear-gradient-4" x1="13.56" y1="-835.37" x2="32.45" y2="-854.26" gradientTransform="matrix(1, 0, 0, -1, 0, -835.04)" gradientUnits="userSpaceOnUse"><stop offset="0" stop-color="#32a071"/><stop offset="0.07" stop-color="#2da771"/><stop offset="0.48" stop-color="#15cf74"/><stop offset="0.8" stop-color="#06e775"/><stop offset="1" stop-color="#00f076"/></linearGradient></defs><title>playStore@2x</title><g id="Layer_2" data-name="Layer 2"><g id="Layer_1-2" data-name="Layer 1"><rect class="cls-1" width="250.92" height="74.35" rx="9.29" ry="9.29"/><path class="cls-2" d="M241.63,1.49a7.81,7.81,0,0,1,7.8,7.8V65.05a7.81,7.81,0,0,1-7.8,7.81H9.29a7.81,7.81,0,0,1-7.8-7.81V9.29a7.81,7.81,0,0,1,7.8-7.8H241.63m0-1.49H9.29A9.32,9.32,0,0,0,0,9.29V65.05a9.32,9.32,0,0,0,9.29,9.3H241.63a9.32,9.32,0,0,0,9.29-9.3V9.29A9.32,9.32,0,0,0,241.63,0Z"/><path class="cls-3" d="M88.13,19a5,5,0,0,1-1.38,3.72,5.42,5.42,0,0,1-4.1,1.65,5.74,5.74,0,0,1-5.79-5.82,5.75,5.75,0,0,1,5.79-5.83,5.76,5.76,0,0,1,2.29.47,4.69,4.69,0,0,1,1.75,1.24l-1,1a3.76,3.76,0,0,0-3.06-1.33,4.21,4.21,0,0,0-3,1.24,4.27,4.27,0,0,0-1.29,3.22,4.39,4.39,0,0,0,7.45,3.21,3.52,3.52,0,0,0,.93-2.26h-4V18.2h5.41A4.92,4.92,0,0,1,88.13,19Z"/><path class="cls-3" d="M96.7,14.38H91.62v3.54H96.2v1.34H91.62v3.53H96.7v1.37H90.19V13H96.7Z"/><path class="cls-3" d="M102.74,24.16h-1.43V14.38H98.2V13h7.66v1.37h-3.12Z"/><path class="cls-3" d="M111.4,24.16V13h1.44V24.16Z"/><path class="cls-3" d="M119.19,24.16h-1.43V14.38h-3.12V13h7.67v1.37h-3.12Z"/><path class="cls-3" d="M136.82,22.72a5.79,5.79,0,0,1-8.18,0A5.66,5.66,0,0,1,127,18.59a5.7,5.7,0,0,1,1.64-4.14,5.77,5.77,0,0,1,8.17,0,5.7,5.7,0,0,1,1.65,4.13A5.7,5.7,0,0,1,136.82,22.72Zm-7.12-.93a4.3,4.3,0,0,0,6.06,0,4.4,4.4,0,0,0,1.23-3.2,4.37,4.37,0,0,0-1.23-3.2,4.27,4.27,0,0,0-6.06,0,4.33,4.33,0,0,0-1.24,3.2A4.36,4.36,0,0,0,129.7,21.79Z"/><path class="cls-3" d="M140.47,24.16V13h1.74l5.42,8.68h.06l-.06-2.15V13h1.44V24.16h-1.5l-5.67-9.09h-.06l.06,2.15v6.94Z"/><path class="cls-4" d="M126.64,40.43a7.91,7.91,0,1,0,7.94,7.9A7.79,7.79,0,0,0,126.64,40.43Zm0,12.7a4.81,4.81,0,1,1,4.46-4.8A4.58,4.58,0,0,1,126.64,53.13Zm-17.31-12.7a7.91,7.91,0,1,0,7.94,7.9A7.79,7.79,0,0,0,109.33,40.43Zm0,12.7a4.81,4.81,0,1,1,4.46-4.8A4.58,4.58,0,0,1,109.33,53.13ZM88.74,42.85v3.36h8a7,7,0,0,1-1.82,4.22,8.22,8.22,0,0,1-6.2,2.46,8.93,8.93,0,0,1,0-17.85,8.6,8.6,0,0,1,6.05,2.39l2.36-2.36a11.67,11.67,0,0,0-8.41-3.38,12.28,12.28,0,1,0,0,24.55A11.23,11.23,0,0,0,97.3,52.8,11.08,11.08,0,0,0,100.21,45a11,11,0,0,0-.18-2.1ZM173,45.46c-.66-1.77-2.66-5-6.76-5s-7.46,3.2-7.46,7.9a7.73,7.73,0,0,0,7.84,7.91,7.88,7.88,0,0,0,6.59-3.5l-2.69-1.8a4.52,4.52,0,0,1-3.9,2.19,4,4,0,0,1-3.83-2.4l10.57-4.37Zm-10.78,2.63a4.34,4.34,0,0,1,4.13-4.61,3.07,3.07,0,0,1,2.94,1.68Zm-8.59,7.67h3.47V32.52h-3.47ZM147.89,42.2h-.12a5.48,5.48,0,0,0-4.16-1.77,7.91,7.91,0,0,0,0,15.81,5.39,5.39,0,0,0,4.16-1.8h.12v1.14c0,3-1.62,4.64-4.22,4.64a4.37,4.37,0,0,1-4-2.81l-3,1.26a7.54,7.54,0,0,0,7,4.67c4.07,0,7.51-2.4,7.51-8.24V40.91h-3.29Zm-4,10.93a4.81,4.81,0,0,1,0-9.59c2.36,0,4.22,2,4.22,4.82S146.27,53.13,143.91,53.13Zm45.31-20.61h-8.31V55.76h3.47V47h4.84a7.23,7.23,0,1,0,0-14.44Zm.09,11.2h-4.93v-8h4.93a4,4,0,1,1,0,8Zm21.44-3.33a6.51,6.51,0,0,0-6.19,3.55l3.08,1.29a3.27,3.27,0,0,1,3.17-1.7c1.79,0,3.61,1.07,3.64,3v.24a7.62,7.62,0,0,0-3.61-.89c-3.32,0-6.7,1.82-6.7,5.23,0,3.11,2.72,5.11,5.77,5.11a4.89,4.89,0,0,0,4.42-2.27h.12v1.79h3.35V46.81C217.8,42.69,214.72,40.39,210.75,40.39Zm-.42,12.73c-1.14,0-2.72-.57-2.72-2,0-1.8,2-2.48,3.67-2.48a6.24,6.24,0,0,1,3.17.77A4.2,4.2,0,0,1,210.33,53.12ZM230,40.89,226,51h-.12l-4.12-10.08H218L224.23,55l-3.53,7.84h3.62l9.53-21.92ZM198.76,55.76h3.47V32.52h-3.47Z"/><path class="cls-5" d="M19.4,14a3.72,3.72,0,0,0-.86,2.61V57.73a3.72,3.72,0,0,0,.86,2.61l.13.13,23-23V36.9l-23-23Z"/><path class="cls-6" d="M50.24,45.13l-7.68-7.68V36.9l7.68-7.67.17.1,9.09,5.16c2.6,1.48,2.6,3.89,0,5.37L50.41,45Z"/><path class="cls-7" d="M50.41,45l-7.85-7.85L19.4,60.34c.85.91,2.27,1,3.86.11L50.41,45"/><path class="cls-8" d="M50.41,29.32,23.26,13.9c-1.59-.91-3-.8-3.86.11L42.56,37.18Z"/><path class="cls-9" d="M50.24,44.85l-27,15.33c-1.51.86-2.86.8-3.73,0h0l-.13.14h0l.13.13h0c.87.78,2.22.84,3.73,0L50.41,45Z"/><path class="cls-10" d="M19.4,60.07a3.72,3.72,0,0,1-.86-2.61v.27a3.72,3.72,0,0,0,.86,2.61l.13-.14Z"/><path class="cls-10" d="M59.5,39.59l-9.26,5.26.17.18,9.09-5.17a3.26,3.26,0,0,0,2-2.68h0A3.46,3.46,0,0,1,59.5,39.59Z"/><path class="cls-11" d="M23.26,14.17,59.5,34.76a3.45,3.45,0,0,1,2,2.42h0a3.26,3.26,0,0,0-2-2.69L23.26,13.9c-2.6-1.48-4.72-.25-4.72,2.72v.27C18.54,13.92,20.66,12.69,23.26,14.17Z"/></g></g></svg>
